<svg width="453" height="516" viewBox="0 0 453 516" fill="none" xmlns="http://www.w3.org/2000/svg">
<g clip-path="url(#clip0_1_16)">
<path d="M425.854 145.433L298.134 145.433C295.706 145.433 293.378 144.468 291.661 142.75C289.945 141.031 288.98 138.701 288.98 136.271V43.2049C288.98 40.7762 289.944 38.4469 291.66 36.7295C293.376 35.0121 295.703 34.0473 298.129 34.0473L425.859 34.0473C428.285 34.0473 430.612 35.0121 432.328 36.7295C434.044 38.4469 435.008 40.7762 435.008 43.2049V136.271C435.008 138.701 434.043 141.031 432.327 142.75C430.61 144.468 428.282 145.433 425.854 145.433Z" fill="white"/>
<path d="M288.598 136.27V43.2043C288.598 40.674 289.602 38.2474 291.39 36.4582C293.177 34.669 295.601 33.6638 298.129 33.6638H425.859C428.387 33.6638 430.811 34.669 432.599 36.4582C434.386 38.2474 435.39 40.674 435.39 43.2043V136.27C435.39 137.524 435.144 138.765 434.664 139.923C434.185 141.081 433.483 142.133 432.597 143.02C431.712 143.906 430.661 144.609 429.504 145.089C428.347 145.568 427.107 145.815 425.855 145.815H298.134C296.881 145.815 295.641 145.568 294.484 145.089C293.328 144.609 292.276 143.906 291.391 143.02C290.505 142.133 289.803 141.081 289.324 139.923C288.845 138.765 288.598 137.524 288.598 136.27ZM298.129 34.4294C295.805 34.4301 293.576 35.3549 291.932 37.0004C290.288 38.6459 289.365 40.8775 289.365 43.2043V136.27C289.365 138.599 290.289 140.832 291.934 142.478C293.579 144.125 295.81 145.05 298.136 145.05H425.855C428.181 145.05 430.412 144.125 432.056 142.478C433.701 140.832 434.625 138.599 434.625 136.27V43.2043C434.625 40.8771 433.702 38.6451 432.058 36.9995C430.414 35.3539 428.184 34.4294 425.859 34.4294H298.129Z" fill="#292A2E"/>
<path d="M288.981 43.2031V50.9576H435.007V43.2031C435.007 40.7743 434.043 38.445 432.327 36.7276C430.611 35.0102 428.284 34.0454 425.858 34.0454H298.129C296.928 34.0454 295.738 34.2823 294.628 34.7425C293.518 35.2027 292.51 35.8773 291.66 36.7277C290.811 37.5781 290.137 38.5876 289.677 39.6986C289.217 40.8097 288.981 42.0005 288.981 43.2031Z" fill="#292A2E"/>
<path d="M338.851 63.4924H331.96C331.879 63.4924 331.801 63.4602 331.744 63.4027C331.687 63.3453 331.654 63.2674 331.654 63.1862C331.654 63.105 331.687 63.0271 331.744 62.9696C331.801 62.9122 331.879 62.8799 331.96 62.8799H338.851C338.932 62.8799 339.01 62.9122 339.067 62.9696C339.125 63.0271 339.157 63.105 339.157 63.1862C339.157 63.2674 339.125 63.3453 339.067 63.4027C339.01 63.4602 338.932 63.4924 338.851 63.4924Z" fill="#292A2E"/>
<path d="M326.991 63.4924H324.384C324.303 63.4924 324.225 63.4602 324.168 63.4027C324.11 63.3453 324.078 63.2674 324.078 63.1862C324.078 63.105 324.11 63.0271 324.168 62.9696C324.225 62.9122 324.303 62.8799 324.384 62.8799H326.991C327.072 62.8799 327.15 62.9122 327.208 62.9696C327.265 63.0271 327.297 63.105 327.297 63.1862C327.297 63.2674 327.265 63.3453 327.208 63.4027C327.15 63.4602 327.072 63.4924 326.991 63.4924Z" fill="#367CFF"/>
<path d="M326.991 69.0169H324.384C324.303 69.0169 324.225 68.9846 324.168 68.9272C324.11 68.8698 324.078 68.7919 324.078 68.7107C324.078 68.6295 324.11 68.5516 324.168 68.4941C324.225 68.4367 324.303 68.4044 324.384 68.4044H326.991C327.072 68.4044 327.15 68.4367 327.208 68.4941C327.265 68.5516 327.297 68.6295 327.297 68.7107C327.297 68.7919 327.265 68.8698 327.208 68.9272C327.15 68.9846 327.072 69.0169 326.991 69.0169Z" fill="#367CFF"/>
<path d="M326.991 74.5414H324.384C324.303 74.5414 324.225 74.5091 324.168 74.4517C324.11 74.3943 324.078 74.3164 324.078 74.2352C324.078 74.1539 324.11 74.076 324.168 74.0186C324.225 73.9612 324.303 73.9289 324.384 73.9289H326.991C327.072 73.9289 327.15 73.9612 327.208 74.0186C327.265 74.076 327.297 74.1539 327.297 74.2352C327.297 74.3164 327.265 74.3943 327.208 74.4517C327.15 74.5091 327.072 74.5414 326.991 74.5414Z" fill="#367CFF"/>
<path d="M326.991 80.0659H324.384C324.303 80.0659 324.225 80.0336 324.168 79.9762C324.11 79.9188 324.078 79.8409 324.078 79.7596C324.078 79.6784 324.11 79.6005 324.168 79.5431C324.225 79.4857 324.303 79.4534 324.384 79.4534H326.991C327.072 79.4534 327.15 79.4857 327.208 79.5431C327.265 79.6005 327.297 79.6784 327.297 79.7596C327.297 79.8409 327.265 79.9188 327.208 79.9762C327.15 80.0336 327.072 80.0659 326.991 80.0659Z" fill="#367CFF"/>
<path d="M326.991 85.5904H324.384C324.303 85.5904 324.225 85.5581 324.168 85.5007C324.11 85.4432 324.078 85.3653 324.078 85.2841C324.078 85.2029 324.11 85.125 324.168 85.0676C324.225 85.0101 324.303 84.9779 324.384 84.9779H326.991C327.072 84.9779 327.15 85.0101 327.208 85.0676C327.265 85.125 327.297 85.2029 327.297 85.2841C327.297 85.3653 327.265 85.4432 327.208 85.5007C327.15 85.5581 327.072 85.5904 326.991 85.5904Z" fill="#367CFF"/>
<path d="M326.991 91.1149H324.384C324.303 91.1149 324.225 91.0826 324.168 91.0252C324.11 90.9677 324.078 90.8898 324.078 90.8086C324.078 90.7274 324.11 90.6495 324.168 90.5921C324.225 90.5346 324.303 90.5024 324.384 90.5024H326.991C327.072 90.5024 327.15 90.5346 327.208 90.5921C327.265 90.6495 327.297 90.7274 327.297 90.8086C327.297 90.8898 327.265 90.9677 327.208 91.0252C327.15 91.0826 327.072 91.1149 326.991 91.1149Z" fill="#367CFF"/>
<path d="M326.991 96.6393H324.384C324.303 96.6393 324.225 96.6071 324.168 96.5496C324.11 96.4922 324.078 96.4143 324.078 96.3331C324.078 96.2519 324.11 96.174 324.168 96.1166C324.225 96.0591 324.303 96.0269 324.384 96.0269H326.991C327.072 96.0269 327.15 96.0591 327.208 96.1166C327.265 96.174 327.297 96.2519 327.297 96.3331C327.297 96.4143 327.265 96.4922 327.208 96.5496C327.15 96.6071 327.072 96.6393 326.991 96.6393Z" fill="#367CFF"/>
<path d="M326.991 102.164H324.384C324.303 102.164 324.225 102.132 324.168 102.074C324.11 102.017 324.078 101.939 324.078 101.858C324.078 101.776 324.11 101.698 324.168 101.641C324.225 101.584 324.303 101.551 324.384 101.551H326.991C327.072 101.551 327.15 101.584 327.208 101.641C327.265 101.698 327.297 101.776 327.297 101.858C327.297 101.939 327.265 102.017 327.208 102.074C327.15 102.132 327.072 102.164 326.991 102.164Z" fill="#367CFF"/>
<path d="M326.991 107.688H324.384C324.303 107.688 324.225 107.656 324.168 107.599C324.11 107.541 324.078 107.463 324.078 107.382C324.078 107.301 324.11 107.223 324.168 107.166C324.225 107.108 324.303 107.076 324.384 107.076H326.991C327.072 107.076 327.15 107.108 327.208 107.166C327.265 107.223 327.297 107.301 327.297 107.382C327.297 107.463 327.265 107.541 327.208 107.599C327.15 107.656 327.072 107.688 326.991 107.688Z" fill="#367CFF"/>
<path d="M326.991 113.213H324.384C324.303 113.213 324.225 113.181 324.168 113.123C324.11 113.066 324.078 112.988 324.078 112.907C324.078 112.825 324.11 112.747 324.168 112.69C324.225 112.633 324.303 112.6 324.384 112.6H326.991C327.072 112.6 327.15 112.633 327.208 112.69C327.265 112.747 327.297 112.825 327.297 112.907C327.297 112.988 327.265 113.066 327.208 113.123C327.15 113.181 327.072 113.213 326.991 113.213Z" fill="#367CFF"/>
<path d="M326.991 118.737H324.384C324.303 118.737 324.225 118.705 324.168 118.648C324.11 118.59 324.078 118.512 324.078 118.431C324.078 118.35 324.11 118.272 324.168 118.215C324.225 118.157 324.303 118.125 324.384 118.125H326.991C327.072 118.125 327.15 118.157 327.208 118.215C327.265 118.272 327.297 118.35 327.297 118.431C327.297 118.512 327.265 118.59 327.208 118.648C327.15 118.705 327.072 118.737 326.991 118.737Z" fill="#367CFF"/>
<path d="M326.991 124.262H324.384C324.303 124.262 324.225 124.23 324.168 124.172C324.11 124.115 324.078 124.037 324.078 123.956C324.078 123.874 324.11 123.796 324.168 123.739C324.225 123.682 324.303 123.649 324.384 123.649H326.991C327.072 123.649 327.15 123.682 327.208 123.739C327.265 123.796 327.297 123.874 327.297 123.956C327.297 124.037 327.265 124.115 327.208 124.172C327.15 124.23 327.072 124.262 326.991 124.262Z" fill="#367CFF"/>
<path d="M326.991 129.786H324.384C324.303 129.786 324.225 129.754 324.168 129.697C324.11 129.639 324.078 129.561 324.078 129.48C324.078 129.399 324.11 129.321 324.168 129.263C324.225 129.206 324.303 129.174 324.384 129.174H326.991C327.072 129.174 327.15 129.206 327.208 129.263C327.265 129.321 327.297 129.399 327.297 129.48C327.297 129.561 327.265 129.639 327.208 129.697C327.15 129.754 327.072 129.786 326.991 129.786Z" fill="#367CFF"/>
<path d="M326.991 135.311H324.384C324.303 135.311 324.225 135.279 324.168 135.222C324.11 135.164 324.078 135.086 324.078 135.005C324.078 134.924 324.11 134.846 324.168 134.789C324.225 134.731 324.303 134.699 324.384 134.699H326.991C327.072 134.699 327.15 134.731 327.208 134.789C327.265 134.846 327.297 134.924 327.297 135.005C327.297 135.086 327.265 135.164 327.208 135.222C327.15 135.279 327.072 135.311 326.991 135.311Z" fill="#367CFF"/>
<path d="M344.358 69.0169H338.079C337.998 69.0169 337.92 68.9846 337.863 68.9272C337.806 68.8698 337.773 68.7919 337.773 68.7107C337.773 68.6294 337.806 68.5515 337.863 68.4941C337.92 68.4367 337.998 68.4044 338.079 68.4044H344.358C344.439 68.4044 344.517 68.4367 344.574 68.4941C344.632 68.5515 344.664 68.6294 344.664 68.7107C344.664 68.7919 344.632 68.8698 344.574 68.9272C344.517 68.9846 344.439 69.0169 344.358 69.0169Z" fill="#292A2E"/>
<path d="M338.851 102.164H331.96C331.879 102.164 331.801 102.132 331.744 102.074C331.687 102.017 331.654 101.939 331.654 101.858C331.654 101.776 331.687 101.698 331.744 101.641C331.801 101.584 331.879 101.551 331.96 101.551H338.851C338.932 101.551 339.01 101.584 339.067 101.641C339.125 101.698 339.157 101.776 339.157 101.858C339.157 101.939 339.125 102.017 339.067 102.074C339.01 102.132 338.932 102.164 338.851 102.164Z" fill="#292A2E"/>
<path d="M344.358 107.688H338.079C337.998 107.688 337.92 107.656 337.863 107.599C337.806 107.541 337.773 107.463 337.773 107.382C337.773 107.301 337.806 107.223 337.863 107.166C337.92 107.108 337.998 107.076 338.079 107.076H344.358C344.439 107.076 344.517 107.108 344.574 107.166C344.632 107.223 344.664 107.301 344.664 107.382C344.664 107.463 344.632 107.541 344.574 107.599C344.517 107.656 344.439 107.688 344.358 107.688Z" fill="#292A2E"/>
<path d="M379.848 74.5414H342.363C342.282 74.5414 342.204 74.5091 342.146 74.4517C342.089 74.3943 342.057 74.3164 342.057 74.2351C342.057 74.1539 342.089 74.076 342.146 74.0186C342.204 73.9612 342.282 73.9289 342.363 73.9289H379.848C379.929 73.9289 380.007 73.9612 380.064 74.0186C380.122 74.076 380.154 74.1539 380.154 74.2351C380.154 74.3164 380.122 74.3943 380.064 74.4517C380.007 74.5091 379.929 74.5414 379.848 74.5414Z" fill="#292A2E"/>
<path d="M412.943 74.5414H386.473C386.392 74.5414 386.314 74.5091 386.257 74.4517C386.199 74.3943 386.167 74.3164 386.167 74.2351C386.167 74.1539 386.199 74.076 386.257 74.0186C386.314 73.9612 386.392 73.9289 386.473 73.9289H412.943C413.025 73.9289 413.102 73.9612 413.16 74.0186C413.217 74.076 413.249 74.1539 413.249 74.2351C413.249 74.3164 413.217 74.3943 413.16 74.4517C413.102 74.5091 413.025 74.5414 412.943 74.5414Z" fill="#0CBC8B"/>
<path d="M427.149 74.5414H419.036C418.954 74.5414 418.877 74.5091 418.819 74.4517C418.762 74.3943 418.73 74.3164 418.73 74.2351C418.73 74.1539 418.762 74.076 418.819 74.0186C418.877 73.9612 418.954 73.9289 419.036 73.9289H427.149C427.23 73.9289 427.308 73.9612 427.366 74.0186C427.423 74.076 427.455 74.1539 427.455 74.2351C427.455 74.3164 427.423 74.3943 427.366 74.4517C427.308 74.5091 427.23 74.5414 427.149 74.5414Z" fill="#292A2E"/>
<path d="M398.205 85.5904H342.363C342.282 85.5904 342.204 85.5581 342.146 85.5007C342.089 85.4432 342.057 85.3653 342.057 85.2841C342.057 85.2029 342.089 85.125 342.146 85.0676C342.204 85.0101 342.282 84.9779 342.363 84.9779H398.205C398.286 84.9779 398.364 85.0101 398.421 85.0676C398.478 85.125 398.511 85.2029 398.511 85.2841C398.511 85.3653 398.478 85.4432 398.421 85.5007C398.364 85.5581 398.286 85.5904 398.205 85.5904Z" fill="#292A2E"/>
<path d="M412.944 85.5904H404.83C404.749 85.5904 404.671 85.5581 404.613 85.5007C404.556 85.4432 404.524 85.3653 404.524 85.2841C404.524 85.2029 404.556 85.125 404.613 85.0676C404.671 85.0101 404.749 84.9779 404.83 84.9779H412.944C413.025 84.9779 413.102 85.0101 413.16 85.0676C413.217 85.125 413.249 85.2029 413.249 85.2841C413.249 85.3653 413.217 85.4432 413.16 85.5007C413.102 85.5581 413.025 85.5904 412.944 85.5904Z" fill="#367CFF"/>
<path d="M349.253 80.0659H342.363C342.282 80.0659 342.204 80.0336 342.146 79.9762C342.089 79.9188 342.057 79.8409 342.057 79.7596C342.057 79.6784 342.089 79.6005 342.146 79.5431C342.204 79.4857 342.282 79.4534 342.363 79.4534H349.253C349.334 79.4534 349.412 79.4857 349.47 79.5431C349.527 79.6005 349.559 79.6784 349.559 79.7596C349.559 79.8409 349.527 79.9188 349.47 79.9762C349.412 80.0336 349.334 80.0659 349.253 80.0659Z" fill="#0CBC8B"/>
<path d="M394.587 80.0659H355.878C355.797 80.0659 355.719 80.0336 355.662 79.9762C355.604 79.9188 355.572 79.8409 355.572 79.7596C355.572 79.6784 355.604 79.6005 355.662 79.5431C355.719 79.4857 355.797 79.4534 355.878 79.4534H394.587C394.668 79.4534 394.746 79.4857 394.803 79.5431C394.86 79.6005 394.893 79.6784 394.893 79.7596C394.893 79.8409 394.86 79.9188 394.803 79.9762C394.746 80.0336 394.668 80.0659 394.587 80.0659Z" fill="#367CFF"/>
<path d="M427.203 80.0659H401.954C401.873 80.0659 401.795 80.0336 401.738 79.9762C401.68 79.9188 401.648 79.8409 401.648 79.7596C401.648 79.6784 401.68 79.6005 401.738 79.5431C401.795 79.4857 401.873 79.4534 401.954 79.4534H427.201C427.282 79.4534 427.36 79.4857 427.418 79.5431C427.475 79.6005 427.507 79.6784 427.507 79.7596C427.507 79.8409 427.475 79.9188 427.418 79.9762C427.36 80.0336 427.282 80.0659 427.201 80.0659H427.203Z" fill="#292A2E"/>
<path d="M379.848 91.1149H342.363C342.282 91.1149 342.204 91.0826 342.146 91.0252C342.089 90.9677 342.057 90.8898 342.057 90.8086C342.057 90.7274 342.089 90.6495 342.146 90.5921C342.204 90.5346 342.282 90.5024 342.363 90.5024H379.848C379.929 90.5024 380.007 90.5346 380.064 90.5921C380.122 90.6495 380.154 90.7274 380.154 90.8086C380.154 90.8898 380.122 90.9677 380.064 91.0252C380.007 91.0826 379.929 91.1149 379.848 91.1149Z" fill="#292A2E"/>
<path d="M400.706 91.1149H386.473C386.392 91.1149 386.314 91.0826 386.257 91.0252C386.199 90.9677 386.167 90.8898 386.167 90.8086C386.167 90.7274 386.199 90.6495 386.257 90.5921C386.314 90.5346 386.392 90.5024 386.473 90.5024H400.706C400.787 90.5024 400.865 90.5346 400.922 90.5921C400.979 90.6495 401.012 90.7274 401.012 90.8086C401.012 90.8898 400.979 90.9677 400.922 91.0252C400.865 91.0826 400.787 91.1149 400.706 91.1149Z" fill="#0CBC8B"/>
<path d="M427.149 91.1149H406.798C406.716 91.1149 406.639 91.0826 406.581 91.0252C406.524 90.9677 406.492 90.8898 406.492 90.8086C406.492 90.7274 406.524 90.6495 406.581 90.5921C406.639 90.5346 406.716 90.5024 406.798 90.5024H427.149C427.23 90.5024 427.308 90.5346 427.366 90.5921C427.423 90.6495 427.455 90.7274 427.455 90.8086C427.455 90.8898 427.423 90.9677 427.366 91.0252C427.308 91.0826 427.23 91.1149 427.149 91.1149Z" fill="#292A2E"/>
<path d="M349.253 96.6393H342.363C342.282 96.6393 342.204 96.6071 342.146 96.5496C342.089 96.4922 342.057 96.4143 342.057 96.3331C342.057 96.2519 342.089 96.174 342.146 96.1166C342.204 96.0591 342.282 96.0269 342.363 96.0269H349.253C349.334 96.0269 349.412 96.0591 349.47 96.1166C349.527 96.174 349.559 96.2519 349.559 96.3331C349.559 96.4143 349.527 96.4922 349.47 96.5496C349.412 96.6071 349.334 96.6393 349.253 96.6393Z" fill="#367CFF"/>
<path d="M394.587 96.6393H355.878C355.797 96.6393 355.719 96.6071 355.662 96.5496C355.604 96.4922 355.572 96.4143 355.572 96.3331C355.572 96.2519 355.604 96.174 355.662 96.1166C355.719 96.0591 355.797 96.0269 355.878 96.0269H394.587C394.668 96.0269 394.746 96.0591 394.803 96.1166C394.86 96.174 394.893 96.2519 394.893 96.3331C394.893 96.4143 394.86 96.4922 394.803 96.5496C394.746 96.6071 394.668 96.6393 394.587 96.6393Z" fill="#0CBC8B"/>
<path d="M378.624 118.737H341.139C341.058 118.737 340.98 118.705 340.923 118.648C340.865 118.59 340.833 118.512 340.833 118.431C340.833 118.35 340.865 118.272 340.923 118.215C340.98 118.157 341.058 118.125 341.139 118.125H378.624C378.705 118.125 378.783 118.157 378.84 118.215C378.898 118.272 378.93 118.35 378.93 118.431C378.93 118.512 378.898 118.59 378.84 118.648C378.783 118.705 378.705 118.737 378.624 118.737Z" fill="#292A2E"/>
<path d="M411.72 118.737H385.249C385.168 118.737 385.09 118.705 385.033 118.648C384.975 118.59 384.943 118.512 384.943 118.431C384.943 118.35 384.975 118.272 385.033 118.215C385.09 118.157 385.168 118.125 385.249 118.125H411.72C411.801 118.125 411.879 118.157 411.936 118.215C411.993 118.272 412.026 118.35 412.026 118.431C412.026 118.512 411.993 118.59 411.936 118.648C411.879 118.705 411.801 118.737 411.72 118.737Z" fill="#367CFF"/>
<path d="M360.267 113.213H341.139C341.058 113.213 340.98 113.181 340.923 113.123C340.865 113.066 340.833 112.988 340.833 112.907C340.833 112.825 340.865 112.747 340.923 112.69C340.98 112.633 341.058 112.6 341.139 112.6H360.267C360.348 112.6 360.426 112.633 360.484 112.69C360.541 112.747 360.573 112.825 360.573 112.907C360.573 112.988 360.541 113.066 360.484 113.123C360.426 113.181 360.348 113.213 360.267 113.213Z" fill="#0CBC8B"/>
<path d="M393.363 113.213H366.892C366.811 113.213 366.733 113.181 366.676 113.123C366.619 113.066 366.586 112.988 366.586 112.907C366.586 112.825 366.619 112.747 366.676 112.69C366.733 112.633 366.811 112.6 366.892 112.6H393.363C393.444 112.6 393.522 112.633 393.579 112.69C393.637 112.747 393.669 112.825 393.669 112.907C393.669 112.988 393.637 113.066 393.579 113.123C393.522 113.181 393.444 113.213 393.363 113.213Z" fill="#367CFF"/>
<path d="M425.979 113.213H400.73C400.649 113.213 400.571 113.181 400.514 113.123C400.456 113.066 400.424 112.988 400.424 112.907C400.424 112.825 400.456 112.747 400.514 112.69C400.571 112.633 400.649 112.6 400.73 112.6H425.977C426.059 112.6 426.136 112.633 426.194 112.69C426.251 112.747 426.283 112.825 426.283 112.907C426.283 112.988 426.251 113.066 426.194 113.123C426.136 113.181 426.059 113.213 425.977 113.213H425.979Z" fill="#292A2E"/>
<path d="M396.981 129.787H341.139C341.058 129.787 340.98 129.755 340.923 129.697C340.865 129.64 340.833 129.562 340.833 129.481C340.833 129.399 340.865 129.322 340.923 129.264C340.98 129.207 341.058 129.174 341.139 129.174H396.981C397.062 129.174 397.14 129.207 397.197 129.264C397.255 129.322 397.287 129.399 397.287 129.481C397.287 129.562 397.255 129.64 397.197 129.697C397.14 129.755 397.062 129.787 396.981 129.787Z" fill="#367CFF"/>
<path d="M411.72 129.787H403.606C403.525 129.787 403.447 129.755 403.39 129.697C403.332 129.64 403.3 129.562 403.3 129.481C403.3 129.399 403.332 129.322 403.39 129.264C403.447 129.207 403.525 129.174 403.606 129.174H411.72C411.801 129.174 411.879 129.207 411.936 129.264C411.993 129.322 412.026 129.399 412.026 129.481C412.026 129.562 411.993 129.64 411.936 129.697C411.879 129.755 411.801 129.787 411.72 129.787Z" fill="#292A2E"/>
<path d="M348.029 124.262H341.139C341.058 124.262 340.98 124.23 340.923 124.173C340.865 124.115 340.833 124.037 340.833 123.956C340.833 123.875 340.865 123.797 340.923 123.74C340.98 123.682 341.058 123.65 341.139 123.65H348.029C348.111 123.65 348.188 123.682 348.246 123.74C348.303 123.797 348.335 123.875 348.335 123.956C348.335 124.037 348.303 124.115 348.246 124.173C348.188 124.23 348.111 124.262 348.029 124.262Z" fill="#367CFF"/>
<path d="M393.363 124.262H354.654C354.573 124.262 354.495 124.23 354.438 124.173C354.381 124.115 354.348 124.037 354.348 123.956C354.348 123.875 354.381 123.797 354.438 123.74C354.495 123.682 354.573 123.65 354.654 123.65H393.363C393.444 123.65 393.522 123.682 393.579 123.74C393.637 123.797 393.669 123.875 393.669 123.956C393.669 124.037 393.637 124.115 393.579 124.173C393.522 124.23 393.444 124.262 393.363 124.262Z" fill="#292A2E"/>
<path d="M425.979 124.262H400.73C400.649 124.262 400.571 124.23 400.514 124.173C400.456 124.115 400.424 124.037 400.424 123.956C400.424 123.875 400.456 123.797 400.514 123.74C400.571 123.682 400.649 123.65 400.73 123.65H425.977C426.059 123.65 426.136 123.682 426.194 123.74C426.251 123.797 426.283 123.875 426.283 123.956C426.283 124.037 426.251 124.115 426.194 124.173C426.136 124.23 426.059 124.262 425.977 124.262H425.979Z" fill="#0CBC8B"/>
<path d="M378.624 135.311H341.139C341.058 135.311 340.98 135.279 340.923 135.222C340.865 135.164 340.833 135.086 340.833 135.005C340.833 134.924 340.865 134.846 340.923 134.789C340.98 134.731 341.058 134.699 341.139 134.699H378.624C378.705 134.699 378.783 134.731 378.84 134.789C378.898 134.846 378.93 134.924 378.93 135.005C378.93 135.086 378.898 135.164 378.84 135.222C378.783 135.279 378.705 135.311 378.624 135.311Z" fill="#0CBC8B"/>
<path d="M399.482 135.311H385.249C385.168 135.311 385.09 135.279 385.033 135.222C384.975 135.164 384.943 135.086 384.943 135.005C384.943 134.924 384.975 134.846 385.033 134.789C385.09 134.731 385.168 134.699 385.249 134.699H399.482C399.563 134.699 399.641 134.731 399.698 134.789C399.756 134.846 399.788 134.924 399.788 135.005C399.788 135.086 399.756 135.164 399.698 135.222C399.641 135.279 399.563 135.311 399.482 135.311Z" fill="#292A2E"/>
<path d="M425.925 135.311H405.574C405.493 135.311 405.415 135.279 405.358 135.222C405.3 135.164 405.268 135.086 405.268 135.005C405.268 134.924 405.3 134.846 405.358 134.789C405.415 134.731 405.493 134.699 405.574 134.699H425.925C426.007 134.699 426.084 134.731 426.142 134.789C426.199 134.846 426.231 134.924 426.231 135.005C426.231 135.086 426.199 135.164 426.142 135.222C426.084 135.279 426.007 135.311 425.925 135.311Z" fill="#367CFF"/>
<path d="M321.478 141.223C321.397 141.223 321.319 141.191 321.262 141.133C321.204 141.076 321.172 140.998 321.172 140.917V53.8484C321.172 53.7672 321.204 53.6893 321.262 53.6319C321.319 53.5745 321.397 53.5422 321.478 53.5422C321.559 53.5422 321.637 53.5745 321.694 53.6319C321.752 53.6893 321.784 53.7672 321.784 53.8484V140.917C321.784 140.998 321.752 141.076 321.694 141.133C321.637 141.191 321.559 141.223 321.478 141.223Z" fill="#292A2E"/>
<path d="M423.944 48.0281C426.655 48.0281 428.853 45.8284 428.853 43.1149C428.853 40.4014 426.655 38.2016 423.944 38.2016C421.233 38.2016 419.036 40.4014 419.036 43.1149C419.036 45.8284 421.233 48.0281 423.944 48.0281Z" fill="white"/>
<path d="M307.485 57.6739H294.236C294.155 57.6739 294.077 57.6417 294.02 57.5842C293.962 57.5268 293.93 57.4489 293.93 57.3677C293.93 57.2865 293.962 57.2086 294.02 57.1512C294.077 57.0937 294.155 57.0615 294.236 57.0615H307.485C307.566 57.0615 307.644 57.0937 307.701 57.1512C307.758 57.2086 307.791 57.2865 307.791 57.3677C307.791 57.4489 307.758 57.5268 307.701 57.5842C307.644 57.6417 307.566 57.6739 307.485 57.6739Z" fill="#292A2E"/>
<path d="M303.493 63.7141H294.236C294.155 63.7141 294.077 63.6819 294.02 63.6244C293.962 63.567 293.93 63.4891 293.93 63.4079C293.93 63.3267 293.962 63.2488 294.02 63.1913C294.077 63.1339 294.155 63.1017 294.236 63.1017H303.493C303.574 63.1017 303.652 63.1339 303.71 63.1913C303.767 63.2488 303.799 63.3267 303.799 63.4079C303.799 63.4891 303.767 63.567 303.71 63.6244C303.652 63.6819 303.574 63.7141 303.493 63.7141Z" fill="#292A2E"/>
<path d="M311.634 69.7543H294.236C294.155 69.7543 294.077 69.722 294.02 69.6646C293.962 69.6072 293.93 69.5293 293.93 69.4481C293.93 69.3668 293.962 69.289 294.02 69.2315C294.077 69.1741 294.155 69.1418 294.236 69.1418H311.634C311.716 69.1418 311.793 69.1741 311.851 69.2315C311.908 69.289 311.94 69.3668 311.94 69.4481C311.94 69.5293 311.908 69.6072 311.851 69.6646C311.793 69.722 311.716 69.7543 311.634 69.7543Z" fill="#292A2E"/>
<path d="M314.881 75.7945H300.355C300.274 75.7945 300.196 75.7622 300.138 75.7048C300.081 75.6474 300.049 75.5695 300.049 75.4883C300.049 75.407 300.081 75.3291 300.138 75.2717C300.196 75.2143 300.274 75.182 300.355 75.182H314.881C314.962 75.182 315.04 75.2143 315.098 75.2717C315.155 75.3291 315.187 75.407 315.187 75.4883C315.187 75.5695 315.155 75.6474 315.098 75.7048C315.04 75.7622 314.962 75.7945 314.881 75.7945Z" fill="#292A2E"/>
<path d="M307.857 81.8353H300.355C300.274 81.8353 300.196 81.803 300.138 81.7456C300.081 81.6882 300.049 81.6103 300.049 81.5291C300.049 81.4478 300.081 81.3699 300.138 81.3125C300.196 81.2551 300.274 81.2228 300.355 81.2228H307.857C307.938 81.2228 308.016 81.2551 308.073 81.3125C308.13 81.3699 308.163 81.4478 308.163 81.5291C308.163 81.6103 308.13 81.6882 308.073 81.7456C308.016 81.803 307.938 81.8353 307.857 81.8353Z" fill="#292A2E"/>
<path d="M313.604 87.8755H300.355C300.274 87.8755 300.196 87.8432 300.138 87.7858C300.081 87.7284 300.049 87.6505 300.049 87.5693C300.049 87.488 300.081 87.4101 300.138 87.3527C300.196 87.2953 300.274 87.263 300.355 87.263H313.604C313.685 87.263 313.763 87.2953 313.82 87.3527C313.877 87.4101 313.91 87.488 313.91 87.5693C313.91 87.6505 313.877 87.7284 313.82 87.7858C313.763 87.8432 313.685 87.8755 313.604 87.8755Z" fill="#292A2E"/>
<path d="M304.451 93.9157H294.236C294.155 93.9157 294.077 93.8834 294.02 93.826C293.962 93.7685 293.93 93.6907 293.93 93.6094C293.93 93.5282 293.962 93.4503 294.02 93.3929C294.077 93.3355 294.155 93.3032 294.236 93.3032H304.451C304.533 93.3032 304.61 93.3355 304.668 93.3929C304.725 93.4503 304.757 93.5282 304.757 93.6094C304.757 93.6907 304.725 93.7685 304.668 93.826C304.61 93.8834 304.533 93.9157 304.451 93.9157Z" fill="#292A2E"/>
<path d="M300.94 99.9552H294.236C294.155 99.9552 294.077 99.923 294.02 99.8656C293.962 99.8081 293.93 99.7302 293.93 99.649C293.93 99.5678 293.962 99.4899 294.02 99.4325C294.077 99.375 294.155 99.3428 294.236 99.3428H300.94C301.021 99.3428 301.099 99.375 301.156 99.4325C301.213 99.4899 301.246 99.5678 301.246 99.649C301.246 99.7302 301.213 99.8081 301.156 99.8656C301.099 99.923 301.021 99.9552 300.94 99.9552Z" fill="#292A2E"/>
<path d="M326.575 56.3779V56.4882L330.399 57.9091C330.454 57.9314 330.501 57.9696 330.534 58.0187C330.566 58.0679 330.584 58.1257 330.583 58.1847V58.2889C330.584 58.3349 330.573 58.3803 330.552 58.4211C330.531 58.4618 330.499 58.4964 330.461 58.5216C330.422 58.549 330.377 58.5661 330.33 58.5715C330.283 58.5768 330.235 58.5702 330.191 58.5522L325.871 56.8618C325.818 56.8402 325.771 56.8031 325.739 56.7551C325.706 56.7071 325.688 56.6504 325.688 56.5923V56.28C325.687 56.2217 325.705 56.1646 325.738 56.1165C325.77 56.0683 325.817 56.0313 325.871 56.0105L330.191 54.3139C330.226 54.3019 330.264 54.2957 330.301 54.2955C330.358 54.2967 330.413 54.3137 330.461 54.3445C330.499 54.3711 330.531 54.4068 330.552 54.4485C330.573 54.4902 330.584 54.5366 330.583 54.5834V54.6875C330.584 54.746 330.567 54.8034 330.534 54.8517C330.502 54.9 330.454 54.9369 330.399 54.957L326.575 56.3779Z" fill="#367CFF"/>
<path d="M334.156 53.0645L331.867 60.0773C331.849 60.1358 331.812 60.1869 331.763 60.2232C331.713 60.2595 331.653 60.2792 331.592 60.2794C331.548 60.2801 331.504 60.2698 331.464 60.2495C331.425 60.2292 331.391 60.1995 331.366 60.163C331.338 60.1268 331.32 60.0847 331.311 60.0401C331.303 59.9955 331.305 59.9495 331.317 59.9058L333.605 52.8991C333.625 52.8395 333.662 52.7874 333.713 52.7501C333.763 52.7128 333.824 52.6921 333.887 52.6909C333.931 52.6907 333.975 52.7012 334.014 52.7214C334.053 52.7417 334.087 52.7711 334.113 52.8072C334.141 52.8434 334.159 52.8858 334.166 52.9306C334.174 52.9754 334.17 53.0213 334.156 53.0645Z" fill="#367CFF"/>
<path d="M339.776 56.28V56.5923C339.776 56.6499 339.76 56.7064 339.728 56.7544C339.697 56.8025 339.651 56.8399 339.598 56.8618L335.272 58.5522C335.229 58.57 335.183 58.5765 335.136 58.5712C335.09 58.5658 335.046 58.5488 335.009 58.5216C334.97 58.4967 334.937 58.4623 334.915 58.4216C334.893 58.381 334.881 58.3353 334.88 58.2889V58.1847C334.88 58.1249 334.898 58.0663 334.932 58.017C334.966 57.9677 335.014 57.93 335.07 57.9091L338.894 56.4882V56.378L335.07 54.957C335.014 54.9383 334.965 54.902 334.931 54.8535C334.897 54.805 334.879 54.7468 334.88 54.6875V54.5834C334.881 54.5361 334.892 54.4896 334.915 54.4479C334.937 54.4063 334.97 54.3708 335.009 54.3445C335.056 54.3138 335.111 54.2969 335.168 54.2956C335.204 54.2952 335.239 54.3014 335.272 54.3139L339.598 56.0105C339.652 56.0317 339.698 56.069 339.729 56.1172C339.761 56.1654 339.777 56.2222 339.776 56.28Z" fill="#367CFF"/>
<path d="M253.263 0H37.7386V215.728H253.263V0Z" fill="#F4F4F4"/>
<path d="M37.7387 0H35.2684V215.728H37.7387V0Z" fill="#F4F4F4"/>
<path opacity="0.05" d="M37.7387 0H35.2684V215.728H37.7387V0Z" fill="#292A2E"/>
<path opacity="0.05" d="M89.9504 148.654V92.2124H136.141V125.004H207.69V183.064H238.099V215.728H207.69H201.832H48.1066V148.654H89.9504Z" fill="#292A2E"/>
<path opacity="0.34" d="M130.212 98.3408H96.5754V104.469H130.212V98.3408Z" fill="#FFFFFA"/>
<path opacity="0.34" d="M130.212 111.04H96.5754V117.168H130.212V111.04Z" fill="#FFFFFA"/>
<path opacity="0.34" d="M130.212 123.739H96.5754V129.867H130.212V123.739Z" fill="#FFFFFA"/>
<path opacity="0.34" d="M60.2704 154.602H54.0707V160.731H60.2704V154.602Z" fill="#FFFFFA"/>
<path opacity="0.34" d="M60.2704 167.301H54.0707V173.43H60.2704V167.301Z" fill="#FFFFFA"/>
<path opacity="0.34" d="M60.2704 180.001H54.0707V186.129H60.2704V180.001Z" fill="#FFFFFA"/>
<path opacity="0.34" d="M71.7398 154.602H65.5401V160.731H71.7398V154.602Z" fill="#FFFFFA"/>
<path opacity="0.34" d="M71.7398 167.301H65.5401V173.43H71.7398V167.301Z" fill="#FFFFFA"/>
<path opacity="0.34" d="M71.7398 180.001H65.5401V186.129H71.7398V180.001Z" fill="#FFFFFA"/>
<path opacity="0.34" d="M82.8995 154.602H76.6998V160.731H82.8995V154.602Z" fill="#FFFFFA"/>
<path opacity="0.34" d="M82.8995 167.301H76.6998V173.43H82.8995V167.301Z" fill="#FFFFFA"/>
<path opacity="0.34" d="M82.8995 180.001H76.6998V186.129H82.8995V180.001Z" fill="#FFFFFA"/>
<path d="M37.7386 106.654H81.1061V0H84.6924V106.654H201.832V0H205.418V106.654H253.263V110.244H205.418V215.728H201.832V110.244H84.6924V215.728H81.1061V110.244H37.7386V106.654Z" fill="white"/>
<path d="M261.849 215.467H29.1531V222.642H261.849V215.467Z" fill="#F4F4F4"/>
<path opacity="0.1" d="M261.849 215.467H29.1531V222.642H261.849V215.467Z" fill="#292A2E"/>
<path opacity="0.1" d="M29.1531 215.467H25.7932V222.642H29.1531V215.467Z" fill="#292A2E"/>
<path opacity="0.1" d="M29.1531 215.467H25.7932V222.642H29.1531V215.467Z" fill="#292A2E"/>
<path d="M35.2684 9.18463L253.263 9.18463V3.85062L35.2684 3.85062V9.18463Z" fill="white"/>
<path d="M35.2684 19.1483L253.263 19.1483V13.8143L35.2684 13.8143V19.1483Z" fill="white"/>
<path d="M35.2684 29.1114L253.263 29.1114V23.7773L35.2684 23.7773V29.1114Z" fill="white"/>
<path d="M35.2684 39.0744L253.263 39.0744V33.7404L35.2684 33.7404V39.0744Z" fill="white"/>
<path d="M35.2684 49.0369L253.263 49.0369V43.7029L35.2684 43.7029V49.0369Z" fill="white"/>
<path d="M58.4219 55.0532H61.6888L61.6888 3.8147e-06H58.4219L58.4219 55.0532Z" fill="white"/>
<path d="M59.7785 62.9596C62.2573 62.9596 64.2667 60.9482 64.2667 58.4671C64.2667 55.986 62.2573 53.9746 59.7785 53.9746C57.2997 53.9746 55.2902 55.986 55.2902 58.4671C55.2902 60.9482 57.2997 62.9596 59.7785 62.9596Z" fill="white"/>
<path d="M37.1714 515.588L35.9697 515.356L54.7524 328.534L55.9542 328.765L37.1714 515.588Z" fill="#494949"/>
<path d="M107.11 515.588L105.908 515.356L124.69 328.534L125.892 328.765L107.11 515.588Z" fill="#494949"/>
<path d="M261.704 515.588L262.906 515.356L244.123 328.534L242.921 328.765L261.704 515.588Z" fill="#494949"/>
<path d="M191.765 515.588L192.967 515.356L174.185 328.534L172.983 328.765L191.765 515.588Z" fill="#494949"/>
<path d="M166.857 246.313L165.644 246.475L176.617 328.732L177.83 328.57L166.857 246.313Z" fill="#494949"/>
<path d="M40.9141 246.312L39.701 246.474L50.6735 328.731L51.8865 328.569L40.9141 246.312Z" fill="#494949"/>
<path d="M177.724 322.626H54.537C51.2133 322.626 48.519 325.323 48.519 328.649V328.65C48.519 331.977 51.2133 334.674 54.537 334.674H177.724C181.047 334.674 183.742 331.977 183.742 328.65V328.649C183.742 325.323 181.047 322.626 177.724 322.626Z" fill="#292A2E"/>
<path opacity="0.8" d="M177.724 322.626H54.537C51.2133 322.626 48.519 325.323 48.519 328.649V328.65C48.519 331.977 51.2133 334.674 54.537 334.674H177.724C181.047 334.674 183.742 331.977 183.742 328.65V328.649C183.742 325.323 181.047 322.626 177.724 322.626Z" fill="white"/>
<path d="M177.724 335.286H54.5376C53.6669 335.286 52.8048 335.114 52.0005 334.78C51.1961 334.447 50.4652 333.958 49.8496 333.342C49.2339 332.726 48.7456 331.994 48.4124 331.189C48.0792 330.384 47.9077 329.521 47.9077 328.649C47.9077 327.778 48.0792 326.915 48.4124 326.11C48.7456 325.305 49.2339 324.573 49.8496 323.957C50.4652 323.341 51.1961 322.852 52.0005 322.518C52.8048 322.185 53.6669 322.013 54.5376 322.013H177.724C178.594 322.013 179.456 322.185 180.261 322.518C181.065 322.852 181.796 323.341 182.412 323.957C183.027 324.573 183.516 325.305 183.849 326.11C184.182 326.915 184.354 327.778 184.354 328.649C184.354 329.521 184.182 330.384 183.849 331.189C183.516 331.994 183.027 332.726 182.412 333.342C181.796 333.958 181.065 334.447 180.261 334.78C179.456 335.114 178.594 335.286 177.724 335.286ZM54.5376 323.238C53.8277 323.238 53.1247 323.378 52.4688 323.65C51.8129 323.922 51.2169 324.321 50.7149 324.823C50.2129 325.326 49.8147 325.922 49.543 326.579C49.2713 327.235 49.1315 327.939 49.1315 328.649C49.1315 329.36 49.2713 330.064 49.543 330.72C49.8147 331.377 50.2129 331.973 50.7149 332.476C51.2169 332.978 51.8129 333.377 52.4688 333.649C53.1247 333.921 53.8277 334.061 54.5376 334.061H177.724C178.434 334.061 179.137 333.921 179.793 333.649C180.448 333.377 181.044 332.978 181.546 332.476C182.048 331.973 182.447 331.377 182.718 330.72C182.99 330.064 183.13 329.36 183.13 328.649C183.13 327.939 182.99 327.235 182.718 326.579C182.447 325.922 182.048 325.326 181.546 324.823C181.044 324.321 180.448 323.922 179.793 323.65C179.137 323.378 178.434 323.238 177.724 323.238H54.5376Z" fill="#292A2E"/>
<path d="M245.336 322.626H122.149C118.825 322.626 116.131 325.323 116.131 328.649V328.65C116.131 331.977 118.825 334.674 122.149 334.674H245.336C248.659 334.674 251.354 331.977 251.354 328.65V328.649C251.354 325.323 248.659 322.626 245.336 322.626Z" fill="white"/>
<path d="M245.336 335.286H122.149C121.278 335.286 120.416 335.114 119.612 334.78C118.807 334.447 118.077 333.958 117.461 333.342C116.845 332.726 116.357 331.994 116.024 331.189C115.691 330.384 115.519 329.521 115.519 328.649C115.519 327.778 115.691 326.915 116.024 326.11C116.357 325.305 116.845 324.573 117.461 323.957C118.077 323.341 118.807 322.852 119.612 322.518C120.416 322.185 121.278 322.013 122.149 322.013H245.336C246.206 322.013 247.068 322.185 247.873 322.518C248.677 322.852 249.408 323.341 250.024 323.957C250.639 324.573 251.128 325.305 251.461 326.11C251.794 326.915 251.966 327.778 251.966 328.649C251.966 329.521 251.794 330.384 251.461 331.189C251.128 331.994 250.639 332.726 250.024 333.342C249.408 333.958 248.677 334.447 247.873 334.78C247.068 335.114 246.206 335.286 245.336 335.286ZM122.149 323.238C121.439 323.238 120.736 323.378 120.08 323.65C119.424 323.922 118.828 324.321 118.326 324.823C117.824 325.326 117.426 325.922 117.154 326.579C116.883 327.235 116.743 327.939 116.743 328.649C116.743 329.36 116.883 330.064 117.154 330.72C117.426 331.377 117.824 331.973 118.326 332.476C118.828 332.978 119.424 333.377 120.08 333.649C120.736 333.921 121.439 334.061 122.149 334.061H245.336C246.046 334.061 246.749 333.921 247.404 333.649C248.06 333.377 248.656 332.978 249.158 332.476C249.66 331.973 250.059 331.377 250.33 330.72C250.602 330.064 250.742 329.36 250.742 328.649C250.742 327.939 250.602 327.235 250.33 326.579C250.059 325.922 249.66 325.326 249.158 324.823C248.656 324.321 248.06 323.922 247.404 323.65C246.749 323.378 246.046 323.238 245.336 323.238H122.149Z" fill="#292A2E"/>
<path d="M160.109 246.392H40.6378C38.6845 246.392 36.7979 245.68 35.3302 244.39C33.8626 243.1 32.9141 241.319 32.6618 239.381L24.7591 178.636C24.6114 177.501 24.7075 176.347 25.0408 175.251C25.3741 174.156 25.9371 173.144 26.6921 172.284C27.4471 171.423 28.3768 170.734 29.4191 170.262C30.4614 169.79 31.5924 169.546 32.7364 169.546H152.206C154.159 169.546 156.046 170.257 157.513 171.548C158.981 172.838 159.93 174.618 160.182 176.557L168.084 237.302C168.232 238.437 168.136 239.591 167.803 240.687C167.469 241.782 166.907 242.794 166.152 243.654C165.397 244.514 164.467 245.204 163.425 245.676C162.383 246.148 161.252 246.392 160.109 246.392Z" fill="#292A2E"/>
<path opacity="0.8" d="M160.109 246.392H40.6378C38.6845 246.392 36.7979 245.68 35.3302 244.39C33.8626 243.1 32.9141 241.319 32.6618 239.381L24.7591 178.636C24.6114 177.501 24.7075 176.347 25.0408 175.251C25.3741 174.156 25.9371 173.144 26.6921 172.284C27.4471 171.423 28.3768 170.734 29.4191 170.262C30.4614 169.79 31.5924 169.546 32.7364 169.546H152.206C154.159 169.546 156.046 170.257 157.513 171.548C158.981 172.838 159.93 174.618 160.182 176.557L168.084 237.302C168.232 238.437 168.136 239.591 167.803 240.687C167.469 241.782 166.907 242.794 166.152 243.654C165.397 244.514 164.467 245.204 163.425 245.676C162.383 246.148 161.252 246.392 160.109 246.392Z" fill="white"/>
<path d="M160.108 247.005H40.6378C38.5371 247 36.5095 246.233 34.9311 244.845C33.3527 243.458 32.3307 241.544 32.0547 239.46L24.1527 178.715C23.9936 177.493 24.0968 176.251 24.4554 175.073C24.8139 173.894 25.4197 172.805 26.2321 171.879C27.0445 170.953 28.045 170.212 29.1666 169.703C30.2882 169.195 31.5053 168.933 32.7364 168.933H152.206C154.306 168.938 156.334 169.705 157.912 171.092C159.491 172.48 160.513 174.394 160.788 176.478L168.691 237.223C168.85 238.445 168.747 239.686 168.388 240.865C168.03 242.044 167.424 243.132 166.612 244.058C165.799 244.984 164.799 245.726 163.678 246.234C162.556 246.742 161.339 247.005 160.108 247.005ZM32.7364 170.158C31.6795 170.158 30.6347 170.384 29.6719 170.82C28.709 171.256 27.8502 171.893 27.1528 172.688C26.4553 173.483 25.9353 174.417 25.6274 175.429C25.3196 176.442 25.2309 177.508 25.3673 178.557L33.27 239.302C33.5067 241.091 34.3841 242.734 35.7392 243.926C37.0944 245.117 38.8354 245.776 40.639 245.78H160.108C161.165 245.779 162.21 245.554 163.172 245.117C164.135 244.681 164.994 244.044 165.691 243.249C166.388 242.454 166.908 241.52 167.216 240.508C167.523 239.496 167.612 238.43 167.476 237.381L159.575 176.637C159.338 174.847 158.461 173.204 157.105 172.013C155.75 170.821 154.009 170.163 152.206 170.159L32.7364 170.158Z" fill="#292A2E"/>
<path d="M166.864 246.392H47.3931C45.4399 246.392 43.5534 245.68 42.0858 244.39C40.6182 243.1 39.6699 241.319 39.4177 239.381L31.5126 178.636C31.3649 177.501 31.4609 176.347 31.7942 175.252C32.1274 174.156 32.6903 173.145 33.4452 172.284C34.2001 171.424 35.1296 170.735 36.1718 170.262C37.2139 169.79 38.3447 169.546 39.4887 169.546H158.962C160.915 169.546 162.801 170.257 164.269 171.548C165.737 172.838 166.685 174.618 166.937 176.557L174.84 237.302C174.988 238.437 174.892 239.591 174.558 240.687C174.225 241.782 173.662 242.794 172.907 243.654C172.152 244.514 171.223 245.204 170.181 245.676C169.139 246.148 168.008 246.392 166.864 246.392Z" fill="white"/>
<path d="M166.864 247.005H47.3931C45.2925 247 43.2649 246.232 41.6866 244.845C40.1083 243.457 39.0865 241.544 38.8107 239.46L30.908 178.715C30.7491 177.493 30.8525 176.252 31.2111 175.073C31.5697 173.894 32.1754 172.806 32.9877 171.88C33.8 170.954 34.8003 170.212 35.9218 169.704C37.0432 169.196 38.2601 168.933 39.4911 168.933H158.961C161.062 168.938 163.089 169.705 164.668 171.093C166.246 172.48 167.268 174.394 167.544 176.478L175.447 237.223C175.606 238.445 175.502 239.686 175.144 240.865C174.785 242.044 174.179 243.132 173.367 244.058C172.555 244.984 171.554 245.725 170.433 246.234C169.312 246.742 168.095 247.005 166.864 247.005ZM39.4911 170.158C38.4344 170.158 37.3899 170.384 36.4273 170.821C35.4648 171.257 34.6063 171.894 33.9091 172.689C33.2119 173.484 32.6922 174.419 32.3844 175.431C32.0767 176.442 31.9881 177.508 32.1245 178.557L40.0241 239.302C40.261 241.091 41.1385 242.734 42.4936 243.925C43.8487 245.117 45.5896 245.775 47.3931 245.78H166.864C167.921 245.78 168.965 245.554 169.928 245.118C170.891 244.681 171.75 244.045 172.447 243.25C173.145 242.455 173.665 241.52 173.973 240.508C174.281 239.496 174.369 238.43 174.233 237.381L166.33 176.637C166.094 174.847 165.216 173.204 163.861 172.013C162.506 170.821 160.765 170.162 158.961 170.159L39.4911 170.158Z" fill="#292A2E"/>
<path d="M259.732 260.262L258.514 260.385L284.31 515.999L285.528 515.876L259.732 260.262Z" fill="#494949"/>
<path d="M153.989 76.2912C153.989 76.2912 161.928 70.2933 163.895 56.487C165.418 45.7975 155.566 52.7227 155.566 52.7227C155.566 52.7227 156.588 45.0148 150.977 45.7798C145.366 46.5447 142.227 54.6416 142.227 54.6416" fill="#0C0C0C"/>
<path d="M121.98 46.6819C121.98 46.6819 94.1419 49.6714 104.206 87.4265L106.669 87.5919L111.67 87.9275" fill="#0C0C0C"/>
<path d="M149.326 126.859C149.204 126.843 147.845 149.398 121.665 147.433C103.541 146.074 97.0784 126.827 96.6629 126.827C98.6173 126.412 101.032 125.78 101.992 125.564C104.083 125.078 105.978 123.966 107.422 122.376C108.867 120.786 109.794 118.794 110.08 116.663C110.61 113.466 109.713 97.1085 109.988 93.8734L137.809 100.089C137.42 106.921 134.699 122.761 144.233 125.564C145.823 126.028 147.532 126.454 149.326 126.859Z" fill="#E98862"/>
<path opacity="0.52" d="M138.2 119.091C137.764 117.685 137.483 116.235 137.362 114.768C137.057 111.421 137.119 108.05 137.546 104.716C131.891 103.952 126.564 101.616 122.17 97.9733C121.653 99.883 118.812 108.227 119.6 110.042C121.084 113.473 128.07 119.091 138.2 119.091Z" fill="#0C0C0C"/>
<path d="M132.458 114.626C121.481 113.641 108.345 106.7 108.156 91.7867L107.984 78.3307C107.795 63.4183 115.466 51.2295 129.495 51.0507C143.522 50.8724 154.161 62.8279 154.351 77.7409L154.426 83.6978C154.417 85.7437 154.268 87.7865 153.98 89.8121C153.261 95.1712 152.145 103.319 148.512 108.831C145.08 114.034 139.469 115.255 132.458 114.626Z" fill="#E98862"/>
<path d="M137.55 100.996C139.815 101.099 142.072 100.668 144.14 99.7366C144.183 99.7183 144.221 99.6918 144.254 99.6586C144.286 99.6253 144.312 99.586 144.329 99.5429C144.347 99.4997 144.355 99.4535 144.355 99.407C144.354 99.3605 144.345 99.3145 144.326 99.2717C144.308 99.2289 144.282 99.1902 144.249 99.1576C144.215 99.1251 144.176 99.0994 144.133 99.0821C144.09 99.0647 144.044 99.056 143.997 99.0565C143.951 99.057 143.905 99.0667 143.862 99.0849C139.407 100.987 135.362 100.708 132.164 98.2795C132.1 98.2283 132.033 98.1806 131.963 98.1368C131.883 98.0996 131.791 98.0938 131.707 98.1206C131.623 98.1474 131.551 98.205 131.507 98.2818C131.463 98.3587 131.449 98.4493 131.468 98.5358C131.488 98.6224 131.539 98.6985 131.611 98.7493C131.637 98.7652 131.678 98.7977 131.734 98.8424C133.415 100.124 135.44 100.874 137.55 100.996Z" fill="#0C0C0C"/>
<path d="M137.444 104.355C137.853 104.38 138.264 104.37 138.671 104.325C138.765 104.315 138.85 104.269 138.909 104.196C138.968 104.123 138.996 104.029 138.986 103.936C138.976 103.842 138.929 103.757 138.856 103.698C138.783 103.639 138.69 103.611 138.597 103.621C136.145 103.882 134.975 102.757 134.925 102.709C134.859 102.642 134.769 102.605 134.675 102.605C134.581 102.605 134.491 102.642 134.425 102.708C134.358 102.775 134.321 102.865 134.321 102.959C134.321 103.053 134.358 103.143 134.424 103.209C135.268 103.929 136.335 104.334 137.444 104.355Z" fill="#0C0C0C"/>
<path d="M149.718 86.5654C150.672 86.5654 151.446 85.791 151.446 84.8358C151.446 83.8806 150.672 83.1062 149.718 83.1062C148.764 83.1062 147.99 83.8806 147.99 84.8358C147.99 85.791 148.764 86.5654 149.718 86.5654Z" fill="#0C0C0C"/>
<path d="M132.837 85.5052C133.791 85.5052 134.565 84.7309 134.565 83.7756C134.565 82.8204 133.791 82.046 132.837 82.046C131.883 82.046 131.109 82.8204 131.109 83.7756C131.109 84.7309 131.883 85.5052 132.837 85.5052Z" fill="#0C0C0C"/>
<path d="M109.084 96.319C104.821 96.3735 101.308 91.8523 101.252 87.5852C101.196 83.3181 104.624 80.9209 108.887 80.867L111.12 83.6978L112.748 96.2725L109.084 96.319Z" fill="#E98862"/>
<path d="M113.323 89.4624C113.323 89.4624 114.763 68.3609 121.155 67.0576C125.413 66.1897 135.737 72.2348 145.3 70.409C149.484 69.6128 153.456 70.6467 153.86 72.625C154.019 73.4083 156.626 62.1517 150.075 53.6114C144.858 46.8099 127.788 44.8898 120.021 47.1192C98.5175 53.2942 108.007 81.7955 108.007 81.7955L108.966 89.0704L113.323 89.4624Z" fill="#0C0C0C"/>
<path d="M140.124 96.0152H140.151C141.525 96.0011 143.828 95.8247 143.819 94.7958C143.809 93.9432 141.386 84.7666 141.109 83.7229C141.083 83.6363 141.024 83.5633 140.944 83.5192C140.865 83.4752 140.772 83.4636 140.685 83.4868C140.597 83.51 140.522 83.5663 140.475 83.6438C140.428 83.7213 140.413 83.814 140.433 83.9024C141.509 87.9667 143.112 94.2237 143.119 94.8044C142.986 95.0493 141.567 95.3017 140.145 95.3164C140.055 95.3183 139.969 95.3546 139.906 95.4179C139.842 95.4811 139.805 95.5664 139.802 95.6562C139.8 95.746 139.832 95.8334 139.891 95.9003C139.951 95.9672 140.035 96.0086 140.124 96.0158V96.0152Z" fill="#0C0C0C"/>
<path d="M144.814 75.4564C146.257 75.0586 147.782 75.0586 149.225 75.4564C149.935 75.6472 150.611 75.9437 151.232 76.3359C151.846 76.7199 152.41 77.18 152.908 77.7054C153.004 77.7981 153.059 77.9246 153.063 78.0577C153.067 78.1909 153.018 78.3202 152.927 78.4178C152.837 78.5155 152.712 78.5739 152.579 78.5804C152.446 78.5869 152.316 78.541 152.216 78.4526L152.185 78.4257C151.723 77.9977 151.209 77.6296 150.655 77.33C150.112 77.0321 149.527 76.8182 148.919 76.6954C147.724 76.4445 146.483 76.514 145.323 76.8969L145.274 76.9141C145.083 76.9818 144.872 76.9707 144.689 76.8831C144.506 76.7955 144.365 76.6387 144.297 76.4471C144.23 76.2555 144.241 76.0448 144.328 75.8615C144.416 75.6781 144.573 75.537 144.764 75.4693L144.814 75.4564Z" fill="#0C0C0C"/>
<path d="M134.59 76.3255C133.491 75.7911 132.271 75.5568 131.053 75.6463C130.435 75.6865 129.826 75.8203 129.248 76.0432C128.66 76.2666 128.103 76.5629 127.589 76.9251L127.556 76.9472C127.445 77.018 127.312 77.0435 127.183 77.0184C127.055 76.9934 126.94 76.9196 126.865 76.8126C126.789 76.7055 126.757 76.5733 126.776 76.4435C126.795 76.3136 126.864 76.1962 126.967 76.1154C127.531 75.6612 128.151 75.28 128.811 74.9811C129.479 74.6758 130.189 74.4722 130.917 74.3772C132.401 74.1747 133.912 74.3774 135.29 74.964C135.477 75.0452 135.623 75.1973 135.698 75.3868C135.773 75.5763 135.769 75.7878 135.688 75.9746C135.607 76.1614 135.455 76.3083 135.265 76.3829C135.076 76.4576 134.865 76.4539 134.678 76.3727L134.636 76.3525L134.59 76.3255Z" fill="#0C0C0C"/>
<path d="M142.759 60.9311C145.914 60.2712 147.686 55.9677 146.715 51.3189C145.745 46.6701 142.4 43.4365 139.245 44.0964C136.089 44.7563 134.318 49.0598 135.288 53.7086C136.259 58.3574 139.603 61.591 142.759 60.9311Z" fill="#0C0C0C"/>
<path d="M318.749 483.692C318.749 483.692 322.03 500.715 337.953 501.663C353.875 502.612 350.423 515.309 350.423 515.309H289.574V484.879L318.749 483.692Z" fill="#367CFF"/>
<path d="M202.986 472.945C202.986 472.945 198.423 489.669 212.293 497.555C226.163 505.441 217.464 515.309 217.464 515.309L162.864 488.422L176.283 461.117L202.986 472.945Z" fill="#367CFF"/>
<path d="M169.168 468.221L215.213 322.826H131.75C114.984 322.826 107.995 308.595 107.995 291.815C107.995 275.034 124.477 260.324 141.242 260.324H253.886C264.111 260.324 275.577 266.583 281.189 275.14C286.801 283.696 285.284 296.954 281.218 306.346L207.484 485.595" fill="#262626"/>
<path opacity="0.8" d="M169.168 468.221L215.213 322.826H131.75C114.984 322.826 107.995 308.595 107.995 291.815C107.995 275.034 124.477 260.324 141.242 260.324H253.886C264.111 260.324 275.577 266.583 281.189 275.14C286.801 283.696 285.284 296.954 281.218 306.346L207.484 485.595" fill="#0A0A0A"/>
<path d="M286.074 499.501L209.085 322.826L107.994 322.819C84.3069 320.96 73.4586 307.967 73.8037 291.19C74.1439 274.626 82.5232 258.265 98.9973 258.265H235.249C247.438 258.515 257.028 271.998 261.55 283.33L325.554 488.684" fill="#262626"/>
<path d="M66.9089 258.468C66.9089 258.468 62.4194 287.772 69.5358 304.064C78.4199 324.404 111.724 322.819 111.724 322.819L109.847 258.265L66.9089 258.468Z" fill="#262626"/>
<path d="M264.446 257.891L193.038 243.081C190.063 242.463 187.291 241.105 184.979 239.131C182.667 237.157 180.89 234.632 179.811 231.788L151.725 157.708C150.87 155.484 150.462 153.114 150.525 150.732C150.588 148.351 151.12 146.005 152.091 143.83C153.062 141.655 154.453 139.693 156.184 138.058C157.915 136.423 159.951 135.146 162.177 134.3C164.402 133.455 166.772 133.058 169.151 133.132C171.53 133.207 173.871 133.751 176.039 134.733C178.207 135.716 180.16 137.117 181.786 138.858C183.412 140.598 184.678 142.642 185.511 144.874L210.08 209.673L271.781 222.47C271.781 222.47 265.685 258.148 264.446 257.891Z" fill="#367CFF"/>
<path d="M181.855 176.52C181.031 186.217 175.186 246.715 174.39 258.659H66.956C66.3386 247.887 64.3346 202.149 61.9935 181.083C59.7595 160.981 58.9487 149.509 61.5224 143.262C66.0614 132.244 77.42 128.28 87.2042 126.954C93.1781 126.145 102.164 125.564 102.164 125.564C102.164 125.564 102.925 140.969 121.066 141.827C145.762 142.991 144.113 125.564 144.235 125.564C148.236 125.564 170.013 128.476 175.458 132.029C183.15 137.046 185.423 143.884 185.513 150.166C185.616 157.4 182.79 165.522 181.855 176.52Z" fill="#367CFF"/>
<path d="M177.633 225.953H177.607C177.567 225.95 177.528 225.939 177.493 225.92C177.457 225.902 177.425 225.877 177.399 225.846C177.373 225.815 177.353 225.78 177.341 225.741C177.329 225.703 177.324 225.663 177.328 225.623L180.117 192.087C180.119 192.047 180.13 192.007 180.148 191.971C180.166 191.935 180.191 191.903 180.222 191.877C180.252 191.85 180.288 191.831 180.327 191.819C180.366 191.807 180.406 191.803 180.447 191.808C180.487 191.811 180.526 191.822 180.561 191.84C180.597 191.859 180.629 191.884 180.655 191.915C180.681 191.946 180.701 191.981 180.713 192.019C180.725 192.058 180.73 192.098 180.726 192.138L177.937 225.673C177.931 225.75 177.896 225.821 177.84 225.873C177.783 225.924 177.71 225.953 177.633 225.953Z" fill="#0C0C0C"/>
<path d="M228.799 246.08L252.372 173.549C252.786 172.275 253.593 171.164 254.676 170.376C255.76 169.589 257.064 169.164 258.403 169.164H360.56C361.562 169.164 362.548 169.402 363.44 169.857C364.332 170.312 365.104 170.971 365.692 171.782C366.281 172.593 366.669 173.532 366.825 174.521C366.982 175.511 366.902 176.524 366.592 177.477L336.9 250.011C336.486 251.285 335.679 252.396 334.596 253.183C333.513 253.971 332.208 254.395 330.869 254.395H234.831C233.829 254.395 232.842 254.158 231.95 253.703C231.058 253.248 230.286 252.588 229.697 251.777C229.109 250.966 228.721 250.027 228.565 249.037C228.409 248.046 228.489 247.033 228.799 246.08Z" fill="#292A2E"/>
<path d="M228.799 246.08L252.372 173.549C252.786 172.275 253.593 171.164 254.676 170.376C255.76 169.589 257.064 169.164 258.403 169.164H360.56C361.562 169.164 362.548 169.402 363.44 169.857C364.332 170.312 365.104 170.971 365.692 171.782C366.281 172.593 366.669 173.532 366.825 174.521C366.982 175.511 366.902 176.524 366.592 177.477L336.9 250.011C336.486 251.285 335.679 252.396 334.596 253.183C333.513 253.971 332.208 254.395 330.869 254.395H234.831C233.829 254.395 232.842 254.158 231.95 253.703C231.058 253.248 230.286 252.588 229.697 251.777C229.109 250.966 228.721 250.027 228.565 249.037C228.409 248.046 228.489 247.033 228.799 246.08Z" fill="#292A2E"/>
<path d="M248.029 248.511H183.74C182.139 248.511 180.84 249.811 180.84 251.414V251.489C180.84 253.092 182.139 254.392 183.74 254.392H248.029C249.63 254.392 250.929 253.092 250.929 251.489V251.414C250.929 249.811 249.63 248.511 248.029 248.511Z" fill="#292A2E"/>
<path d="M248.029 248.511H183.74C182.139 248.511 180.84 249.811 180.84 251.414V251.489C180.84 253.092 182.139 254.392 183.74 254.392H248.029C249.63 254.392 250.929 253.092 250.929 251.489V251.414C250.929 249.811 249.63 248.511 248.029 248.511Z" fill="#292A2E"/>
<path d="M294.636 225.399C300.199 225.399 304.708 220.885 304.708 215.317C304.708 209.749 300.199 205.235 294.636 205.235C289.073 205.235 284.564 209.749 284.564 215.317C284.564 220.885 289.073 225.399 294.636 225.399Z" fill="white"/>
<path d="M223.426 229.09L207.381 223.461L209.684 223.301C210.427 223.235 211.117 222.889 211.614 222.334C212.112 221.778 212.38 221.054 212.364 220.308C212.343 219.923 212.244 219.547 212.072 219.202C211.901 218.857 211.661 218.55 211.367 218.301C211.074 218.052 210.732 217.865 210.364 217.753C209.996 217.64 209.609 217.603 209.226 217.645L180.84 220.665L181.574 229.795C181.803 232.631 182.873 235.334 184.647 237.557C186.421 239.781 188.818 241.423 191.53 242.274L203.823 246.107C204.458 246.318 205.146 246.304 205.772 246.066C206.397 245.828 206.921 245.381 207.255 244.8C207.545 244.27 207.659 243.66 207.578 243.061C207.498 242.461 207.229 241.903 206.81 241.468C206.837 241.449 206.86 241.424 206.877 241.395C206.894 241.367 206.906 241.335 206.91 241.302C206.915 241.269 206.913 241.236 206.904 241.203C206.895 241.171 206.88 241.141 206.859 241.115L209.123 241.826C209.83 242.064 210.6 242.024 211.278 241.715C211.957 241.405 212.493 240.85 212.777 240.16C213.01 239.535 213.015 238.847 212.791 238.219C212.567 237.59 212.129 237.061 211.554 236.724C211.58 236.709 211.604 236.69 211.623 236.667L212.555 236.959C213.19 237.171 213.878 237.157 214.503 236.919C215.129 236.68 215.653 236.233 215.987 235.652C216.339 235.009 216.428 234.255 216.236 233.547C216.045 232.839 215.587 232.233 214.959 231.855C214.964 231.836 214.967 231.817 214.967 231.798L221.649 234.142C221.981 234.262 222.334 234.315 222.687 234.298C223.04 234.281 223.386 234.194 223.705 234.043C224.024 233.891 224.31 233.677 224.546 233.414C224.782 233.152 224.964 232.844 225.081 232.511C225.198 232.177 225.247 231.823 225.227 231.47C225.206 231.117 225.116 230.772 224.961 230.454C224.807 230.136 224.59 229.852 224.325 229.618C224.06 229.385 223.751 229.206 223.417 229.092L223.426 229.09Z" fill="#E98862"/>
<path opacity="0.2" d="M214.714 232.057C214.683 232.056 214.652 232.051 214.623 232.041L208.16 229.688C208.094 229.664 208.04 229.614 208.01 229.55C207.98 229.486 207.977 229.412 208.001 229.346C208.026 229.279 208.076 229.225 208.14 229.196C208.204 229.166 208.277 229.163 208.344 229.187L214.807 231.54C214.866 231.561 214.915 231.603 214.947 231.657C214.978 231.711 214.989 231.775 214.978 231.837C214.968 231.898 214.935 231.954 214.887 231.995C214.839 232.035 214.778 232.057 214.716 232.057H214.714Z" fill="#0A0A0A"/>
<path opacity="0.2" d="M211.446 236.76C211.415 236.76 211.385 236.755 211.357 236.745L206.262 234.935C206.229 234.924 206.198 234.906 206.171 234.883C206.144 234.86 206.122 234.832 206.107 234.8C206.091 234.768 206.082 234.733 206.08 234.698C206.078 234.662 206.083 234.627 206.094 234.593C206.106 234.56 206.125 234.529 206.149 234.503C206.172 234.477 206.201 234.455 206.234 234.44C206.266 234.425 206.301 234.417 206.336 234.416C206.371 234.415 206.407 234.42 206.44 234.433L211.535 236.242C211.594 236.263 211.644 236.304 211.675 236.359C211.707 236.413 211.719 236.477 211.708 236.538C211.697 236.6 211.665 236.657 211.617 236.697C211.569 236.738 211.509 236.76 211.446 236.76Z" fill="#0A0A0A"/>
<path opacity="0.2" d="M206.649 241.533C206.616 241.533 206.584 241.527 206.554 241.515L204.167 240.604C204.101 240.579 204.048 240.529 204.019 240.464C203.991 240.399 203.989 240.326 204.014 240.26C204.039 240.194 204.089 240.141 204.154 240.112C204.218 240.083 204.292 240.081 204.358 240.106L206.744 241.017C206.802 241.039 206.851 241.081 206.882 241.135C206.913 241.19 206.923 241.253 206.912 241.315C206.901 241.376 206.868 241.432 206.82 241.471C206.772 241.511 206.712 241.533 206.649 241.533H206.649Z" fill="#0A0A0A"/>
<path d="M193.404 215.261L126.096 215.216L100.632 153.042L62.647 169.028L94.4154 242.818L94.7256 243.553C96.2799 247.139 98.898 250.161 102.225 252.209C105.553 254.256 109.428 255.231 113.327 255L194.42 250.205L193.404 215.261Z" fill="#367CFF"/>
<path d="M112.213 255.339C108.44 255.333 104.75 254.226 101.595 252.154C98.4395 250.083 95.9557 247.136 94.4466 243.674L94.1358 242.939L67.0637 180.066L67.6254 179.821L95.0077 243.433C96.5443 246.957 99.1218 249.924 102.394 251.938C105.666 253.951 109.475 254.913 113.309 254.695L194.106 249.918L193.105 215.568L125.889 215.523L106.309 167.718L106.875 167.486L126.299 214.911L193.699 214.956L194.735 250.494L194.438 250.512L113.347 255.305C112.969 255.328 112.589 255.339 112.213 255.339Z" fill="#0C0C0C"/>
<path d="M37.3472 260.265L11.5335 515.878L12.7511 516.001L38.5648 260.388L37.3472 260.265Z" fill="#494949"/>
<path d="M143.999 260.265L118.186 515.878L119.403 516.001L145.217 260.388L143.999 260.265Z" fill="#494949"/>
<path d="M366.384 260.262L365.166 260.385L390.962 515.999L392.179 515.876L366.384 260.262Z" fill="#494949"/>
<path d="M389.645 255.305H15.7752C13.0061 255.305 10.7614 257.552 10.7614 260.324C10.7614 263.095 13.0061 265.342 15.7752 265.342H389.645C392.414 265.342 394.659 263.095 394.659 260.324C394.659 257.552 392.414 255.305 389.645 255.305Z" fill="#292A2E"/>
<path opacity="0.8" d="M389.645 255.305H15.7752C13.0061 255.305 10.7614 257.552 10.7614 260.324C10.7614 263.095 13.0061 265.342 15.7752 265.342H389.645C392.414 265.342 394.659 263.095 394.659 260.324C394.659 257.552 392.414 255.305 389.645 255.305Z" fill="white"/>
<path d="M389.646 265.954H15.7777C15.034 265.962 14.2962 265.822 13.6069 265.543C12.9175 265.263 12.2904 264.85 11.7618 264.326C11.2332 263.803 10.8135 263.179 10.5271 262.492C10.2407 261.805 10.0933 261.068 10.0933 260.324C10.0933 259.579 10.2407 258.842 10.5271 258.155C10.8135 257.468 11.2332 256.845 11.7618 256.321C12.2904 255.798 12.9175 255.384 13.6069 255.105C14.2962 254.825 15.034 254.685 15.7777 254.693H389.646C390.389 254.685 391.127 254.825 391.816 255.105C392.506 255.384 393.133 255.798 393.661 256.321C394.19 256.845 394.61 257.468 394.896 258.155C395.183 258.842 395.33 259.579 395.33 260.324C395.33 261.068 395.183 261.805 394.896 262.492C394.61 263.179 394.19 263.803 393.661 264.326C393.133 264.85 392.506 265.263 391.816 265.543C391.127 265.822 390.389 265.962 389.646 265.954ZM15.7777 255.918C15.1953 255.911 14.6173 256.02 14.0773 256.238C13.5372 256.457 13.0458 256.78 12.6315 257.19C12.2173 257.6 11.8884 258.088 11.6639 258.626C11.4394 259.164 11.3238 259.741 11.3238 260.324C11.3238 260.907 11.4394 261.484 11.6639 262.022C11.8884 262.56 12.2173 263.048 12.6315 263.458C13.0458 263.867 13.5372 264.191 14.0773 264.409C14.6173 264.628 15.1953 264.736 15.7777 264.73H389.646C390.228 264.736 390.806 264.628 391.346 264.409C391.886 264.191 392.378 263.867 392.792 263.458C393.206 263.048 393.535 262.56 393.759 262.022C393.984 261.484 394.099 260.907 394.099 260.324C394.099 259.741 393.984 259.164 393.759 258.626C393.535 258.088 393.206 257.6 392.792 257.19C392.378 256.78 391.886 256.457 391.346 256.238C390.806 256.02 390.228 255.911 389.646 255.918H15.7777Z" fill="#292A2E"/>
<path d="M389.645 255.305H126.504C123.735 255.305 121.491 257.552 121.491 260.324C121.491 263.095 123.735 265.342 126.504 265.342H389.645C392.414 265.342 394.659 263.095 394.659 260.324C394.659 257.552 392.414 255.305 389.645 255.305Z" fill="white"/>
<path d="M389.646 265.954H126.504C125.023 265.939 123.607 265.339 122.564 264.285C121.522 263.23 120.937 261.807 120.937 260.324C120.937 258.84 121.522 257.417 122.564 256.363C123.607 255.308 125.023 254.708 126.504 254.693H389.646C390.389 254.685 391.127 254.825 391.816 255.105C392.506 255.384 393.133 255.798 393.661 256.321C394.19 256.845 394.61 257.468 394.896 258.155C395.183 258.842 395.33 259.579 395.33 260.324C395.33 261.068 395.183 261.805 394.896 262.492C394.61 263.179 394.19 263.803 393.661 264.326C393.133 264.85 392.506 265.263 391.816 265.543C391.127 265.822 390.389 265.962 389.646 265.954ZM126.504 255.918C125.346 255.932 124.24 256.402 123.425 257.227C122.611 258.051 122.154 259.164 122.154 260.324C122.154 261.483 122.611 262.596 123.425 263.421C124.24 264.246 125.346 264.716 126.504 264.73H389.646C390.228 264.736 390.806 264.628 391.346 264.409C391.886 264.191 392.378 263.867 392.792 263.458C393.206 263.048 393.535 262.56 393.759 262.022C393.984 261.484 394.099 260.907 394.099 260.324C394.099 259.741 393.984 259.164 393.759 258.626C393.535 258.088 393.206 257.6 392.792 257.19C392.378 256.78 391.886 256.457 391.346 256.238C390.806 256.02 390.228 255.911 389.646 255.918H126.504Z" fill="#292A2E"/>
<path d="M399.73 434.511C399.649 434.512 399.57 434.496 399.495 434.465C399.421 434.434 399.354 434.389 399.297 434.332C398.435 433.47 397.029 417.637 393.244 370.498C391.695 351.21 390.232 332.992 389.165 321.92C389.089 321.13 388.782 321.038 388.682 321.008C387.22 320.566 382.776 324.074 380.295 327.146C380.193 327.272 380.045 327.353 379.883 327.37C379.722 327.387 379.56 327.339 379.434 327.237C379.307 327.135 379.227 326.987 379.21 326.825C379.193 326.664 379.24 326.502 379.343 326.375C380.984 324.344 386.332 319.02 389.034 319.834C389.578 319.998 390.258 320.472 390.383 321.803C391.452 332.884 392.915 351.108 394.464 370.4C396.764 399.046 399.37 431.498 400.227 433.542C400.292 433.633 400.331 433.741 400.34 433.853C400.348 433.966 400.325 434.078 400.274 434.178C400.222 434.279 400.144 434.363 400.048 434.421C399.952 434.48 399.842 434.511 399.73 434.511Z" fill="#494949"/>
<path d="M387.593 342.237C397.746 334.09 401.112 321.41 395.109 313.915C389.107 306.42 376.01 306.948 365.856 315.095C355.703 323.241 352.337 335.921 358.34 343.417C364.342 350.912 377.439 350.384 387.593 342.237Z" fill="#0CBC8B"/>
<path opacity="0.2" d="M387.593 342.237C397.746 334.09 401.112 321.41 395.109 313.915C389.107 306.42 376.01 306.948 365.856 315.095C355.703 323.241 352.337 335.921 358.34 343.417C364.342 350.912 377.439 350.384 387.593 342.237Z" fill="white"/>
<path d="M361.186 345.323C361.128 345.323 361.071 345.306 361.022 345.275C360.973 345.244 360.934 345.199 360.909 345.147C360.885 345.094 360.876 345.036 360.883 344.978C360.89 344.92 360.914 344.866 360.951 344.821L389.888 309.893C389.94 309.83 390.014 309.791 390.095 309.783C390.176 309.776 390.257 309.801 390.319 309.852C390.381 309.904 390.421 309.979 390.428 310.06C390.436 310.141 390.411 310.221 390.359 310.284L361.422 345.212C361.393 345.247 361.357 345.275 361.316 345.294C361.276 345.313 361.231 345.323 361.186 345.323Z" fill="white"/>
<path d="M406.041 427.024C405.943 427.024 405.847 427 405.76 426.956C405.673 426.911 405.599 426.846 405.542 426.766C405.486 426.686 405.449 426.594 405.435 426.498C405.421 426.401 405.431 426.302 405.463 426.21L416.333 394.921C416.653 394.002 417.199 393.178 417.92 392.524C418.64 391.87 419.513 391.408 420.459 391.18C421.404 390.951 422.392 390.964 423.331 391.217C424.27 391.469 425.131 391.954 425.835 392.626L431.582 398.12C431.699 398.232 431.767 398.387 431.771 398.549C431.775 398.712 431.714 398.869 431.602 398.987C431.49 399.104 431.335 399.172 431.173 399.176C431.011 399.18 430.854 399.119 430.736 399.006L424.99 393.511C424.434 392.981 423.755 392.598 423.013 392.399C422.272 392.2 421.492 392.19 420.746 392.37C419.999 392.55 419.31 392.915 418.741 393.431C418.172 393.947 417.741 394.598 417.489 395.324L406.62 426.613C406.578 426.733 406.5 426.837 406.396 426.911C406.292 426.985 406.168 427.024 406.041 427.024Z" fill="#494949"/>
<path d="M447.636 415.443C455.161 409.482 454.713 396.369 446.637 386.156C438.561 375.943 425.913 372.497 418.388 378.458C410.864 384.42 411.311 397.533 419.387 407.746C427.464 417.959 440.111 421.405 447.636 415.443Z" fill="#0CBC8B"/>
<path d="M394.795 432.516C394.657 432.516 394.524 432.469 394.416 432.384C394.308 432.299 394.232 432.18 394.2 432.046L375.956 355.705C375.831 355.185 375.565 354.709 375.188 354.33C374.811 353.951 374.336 353.684 373.817 353.557C373.297 353.43 372.753 353.449 372.244 353.612C371.735 353.775 371.281 354.075 370.931 354.48L365.307 360.984C365.255 361.046 365.191 361.097 365.119 361.133C365.047 361.17 364.969 361.192 364.888 361.199C364.807 361.205 364.726 361.195 364.649 361.17C364.573 361.144 364.502 361.104 364.441 361.051C364.379 360.998 364.329 360.933 364.293 360.861C364.257 360.788 364.236 360.71 364.23 360.629C364.225 360.548 364.236 360.467 364.262 360.39C364.288 360.314 364.329 360.243 364.382 360.183L370.005 353.679C370.502 353.104 371.148 352.677 371.872 352.445C372.596 352.214 373.37 352.187 374.108 352.367C374.846 352.548 375.521 352.928 376.057 353.467C376.593 354.007 376.97 354.683 377.146 355.423L395.387 431.764C395.424 431.921 395.397 432.087 395.312 432.225C395.227 432.362 395.091 432.461 394.934 432.499C394.889 432.51 394.842 432.516 394.795 432.516Z" fill="#494949"/>
<path d="M388.064 377.943C390.281 365.109 384.413 353.377 374.956 351.74C365.5 350.103 356.036 359.181 353.819 372.016C351.601 384.851 357.47 396.582 366.926 398.219C376.383 399.856 385.846 390.778 388.064 377.943Z" fill="#0CBC8B"/>
<path d="M399.73 434.511C399.705 434.511 399.68 434.51 399.655 434.507C399.575 434.497 399.498 434.472 399.428 434.432C399.358 434.393 399.297 434.34 399.247 434.276C399.198 434.213 399.161 434.14 399.14 434.063C399.118 433.985 399.112 433.904 399.122 433.824L410.77 339.163C410.897 338.131 411.319 337.159 411.985 336.362C412.651 335.565 413.532 334.977 414.524 334.67C415.515 334.362 416.575 334.348 417.574 334.629C418.573 334.909 419.471 335.473 420.158 336.251L433.471 351.345C433.579 351.466 433.633 351.626 433.623 351.788C433.613 351.95 433.539 352.102 433.418 352.209C433.296 352.317 433.136 352.372 432.974 352.362C432.812 352.351 432.661 352.277 432.554 352.155L419.24 337.062C418.709 336.46 418.016 336.025 417.243 335.808C416.471 335.591 415.652 335.602 414.886 335.839C414.119 336.077 413.438 336.531 412.923 337.147C412.409 337.763 412.083 338.515 411.985 339.312L400.337 433.974C400.319 434.122 400.247 434.259 400.135 434.358C400.024 434.457 399.88 434.511 399.73 434.511Z" fill="#494949"/>
<path d="M447.127 359.732C451.772 351.327 446.306 339.402 434.919 333.097C423.532 326.792 410.535 328.495 405.89 336.901C401.245 345.307 406.71 357.232 418.098 363.536C429.485 369.841 442.481 368.138 447.127 359.732Z" fill="#0CBC8B"/>
<path opacity="0.2" d="M447.636 415.443C455.161 409.482 454.713 396.369 446.637 386.156C438.561 375.943 425.913 372.497 418.388 378.458C410.864 384.42 411.311 397.533 419.387 407.746C427.464 417.959 440.111 421.405 447.636 415.443Z" fill="white"/>
<path opacity="0.5" d="M388.064 377.943C390.281 365.109 384.413 353.377 374.956 351.74C365.5 350.103 356.036 359.181 353.819 372.016C351.601 384.851 357.47 396.582 366.926 398.219C376.383 399.856 385.846 390.778 388.064 377.943Z" fill="white"/>
<path opacity="0.5" d="M447.127 359.732C451.772 351.327 446.306 339.402 434.919 333.097C423.532 326.792 410.535 328.495 405.89 336.901C401.245 345.307 406.71 357.232 418.098 363.536C429.485 369.841 442.481 368.138 447.127 359.732Z" fill="white"/>
<path d="M414.628 514.832H384.831L379.893 419.407H419.565L414.628 514.832Z" fill="#292A2E"/>
<path opacity="0.3" d="M414.628 514.832H384.831L379.893 419.407H419.565L414.628 514.832Z" fill="white"/>
<path d="M447.637 415.745C447.591 415.745 447.545 415.735 447.503 415.715C447.462 415.694 447.425 415.665 447.397 415.629L418.148 378.644C418.098 378.581 418.075 378.499 418.084 378.419C418.094 378.338 418.135 378.264 418.198 378.214C418.262 378.163 418.343 378.14 418.423 378.15C418.504 378.159 418.578 378.2 418.628 378.264L447.877 415.249C447.912 415.294 447.935 415.348 447.941 415.405C447.947 415.463 447.938 415.52 447.912 415.572C447.887 415.624 447.848 415.668 447.799 415.698C447.751 415.729 447.694 415.745 447.637 415.745Z" fill="white"/>
<path d="M445.181 362.695C445.116 362.695 445.053 362.673 445.001 362.634L407.574 335.28C407.508 335.232 407.464 335.16 407.452 335.08C407.439 335 407.459 334.918 407.507 334.852C407.555 334.786 407.627 334.742 407.707 334.73C407.787 334.717 407.869 334.737 407.935 334.785L445.362 362.14C445.413 362.179 445.451 362.232 445.47 362.294C445.489 362.355 445.489 362.421 445.468 362.482C445.448 362.543 445.409 362.596 445.357 362.633C445.305 362.671 445.242 362.691 445.178 362.691L445.181 362.695Z" fill="white"/>
<path d="M365.405 397.82C365.379 397.82 365.352 397.816 365.326 397.809C365.248 397.788 365.181 397.737 365.141 397.667C365.1 397.597 365.089 397.513 365.11 397.435L377.024 352.753C377.047 352.677 377.098 352.612 377.168 352.573C377.237 352.534 377.319 352.524 377.396 352.544C377.473 352.565 377.539 352.615 377.58 352.683C377.621 352.751 377.633 352.833 377.615 352.911L365.701 397.592C365.684 397.658 365.645 397.715 365.592 397.756C365.538 397.798 365.473 397.82 365.405 397.82Z" fill="white"/>
<path d="M429.013 515.692H0.428327C0.314727 515.692 0.205781 515.647 0.125454 515.566C0.0451271 515.486 0 515.377 0 515.263C0 515.15 0.0451271 515.04 0.125454 514.96C0.205781 514.88 0.314727 514.834 0.428327 514.834H429.012C429.125 514.834 429.234 514.88 429.315 514.96C429.395 515.04 429.44 515.15 429.44 515.263C429.44 515.377 429.395 515.486 429.315 515.566C429.234 515.647 429.125 515.692 429.012 515.692H429.013Z" fill="#292A2E"/>
<g opacity="0.65">
<path d="M429.013 515.692H0.428327C0.314727 515.692 0.205781 515.647 0.125454 515.566C0.0451271 515.486 0 515.377 0 515.263C0 515.15 0.0451271 515.04 0.125454 514.96C0.205781 514.88 0.314727 514.834 0.428327 514.834H429.012C429.125 514.834 429.234 514.88 429.315 514.96C429.395 515.04 429.44 515.15 429.44 515.263C429.44 515.377 429.395 515.486 429.315 515.566C429.234 515.647 429.125 515.692 429.012 515.692H429.013Z" fill="#292A2E"/>
</g>
</g>
<defs>
<clipPath id="clip0_1_16">
<rect width="453" height="516" fill="white"/>
</clipPath>
</defs>
</svg>
